# xmcd
#
# Track frame offsets: 
#        150
#        23055
#        47187
#        68975
#        88472
#        114187
#        134080
#        155622
#        182065
#        204835
#
# Disc length: 3030 seconds
#
# Revision: 1
# Processed by: cddbd v1.5.2PL0 Copyright (c) Steve Scherf et al.
# Submitted via: ExactAudioCopy v1.0b1
#
DISCID=8c0bd40a
DTITLE=Khanh Ly - Doc Mo
DYEAR=1992
DGENRE=Blues
TTITLE0=Tha Nhu Giot Mua (Pham Duy, tho Nguyen Tat Nhien)
TTITLE1=Doc Mo (Ngo Thuy Mien)
TTITLE2=Giot Le Cho Ngan Sau (Tu Cong Phung)
TTITLE3=Tinh Cuong Si (Tran Quang Nam)
TTITLE4=Mat Le Cho Nguoi (Tu Cong Phung)
TTITLE5=Mua Thu Xa Em (Ngo Thuy Mien)
TTITLE6=Trong Tay Nhau (Vu Thanh An)
TTITLE7=Hai Nam Tinh Lan Dan (Pham Duy, tho Nguyen Tat Nhien)
TTITLE8=Tinh Dien (Tran Quang Nam)
TTITLE9=Dung Yeu Toi (Vu Thanh An)
EXTD=
EXTT0=
EXTT1=
EXTT2=
EXTT3=
EXTT4=
EXTT5=
EXTT6=
EXTT7=
EXTT8=
EXTT9=
PLAYORDER=
